<svg width="38" height="20" viewBox="0 0 38 20" fill="none" xmlns="http://www.w3.org/2000/svg">
  <path
    d="M15.8499 19.1879C15.0872 19.2217 14.2914 19.2556 13.5288 19.3232C13.3298 19.3232 13.0977 19.3571 12.8988 19.2556C12.6667 19.154 12.5009 18.951 12.3682 18.748C11.5061 17.462 11.4729 15.8038 11.7382 14.2809C12.0366 12.6904 12.6335 11.1676 13.2304 9.67858C13.8272 8.18958 14.3578 6.63289 14.4904 5.00853C14.623 3.38416 14.3578 1.69211 13.3962 0.406157C14.4572 0.270793 15.5183 0.135429 16.6126 0.0677471C17.2426 6.52373e-05 17.6736 0.135429 18.1379 0.575361C18.5689 0.981453 18.9668 1.48907 19.3316 2.03052C20.0611 3.11343 20.5585 4.36555 20.7906 5.6515C21.0558 7.14051 20.9895 8.69719 20.89 10.22C20.7906 11.7429 20.6911 13.2657 20.9232 14.7886C21.1553 16.3114 21.719 17.8004 22.8133 18.8495C22.1501 18.9172 21.4537 18.951 20.7906 19.0187C20.5585 19.0525 20.2932 19.0525 20.0942 18.9848C19.7626 18.8833 19.5305 18.6126 19.3316 18.3419C18.6352 17.4282 18.171 16.3452 17.9057 15.2285C17.8726 15.127 17.8394 14.9916 17.7731 14.8901C17.6736 14.7886 17.5078 14.7886 17.3752 14.7886C16.4468 14.7886 15.5183 14.8224 14.5899 14.8224C14.4572 16.3791 14.9215 17.9696 15.8499 19.1879ZM16.5131 12.149C16.8447 12.149 17.2094 12.149 17.541 12.149C17.6073 12.149 17.6405 12.1151 17.6736 12.0474C17.6736 11.8782 17.7068 11.6752 17.7068 11.506C17.74 11.2353 17.7731 10.9645 17.8063 10.6938C18.0052 8.62951 18.37 6.26064 17.8063 4.19634C17.6736 3.75641 17.541 3.28264 17.342 2.87655C17.3089 2.77502 17.2426 2.6735 17.2094 2.57198C17.1763 2.5043 17.0768 2.47045 17.0105 2.5043C16.9441 2.53814 16.9773 2.60582 17.0105 2.63966C17.0768 2.91039 17.1099 3.21496 17.1763 3.48568C17.342 4.56859 17.1431 5.68534 16.9441 6.76826C16.6789 8.15573 16.2146 9.47553 15.7836 10.8292C15.7504 10.9307 15.7173 10.9984 15.7173 11.0999C15.6178 11.4383 15.5183 11.7429 15.4188 12.0813C15.3194 12.1828 15.3194 12.1828 15.452 12.1828C15.6509 12.1828 15.8499 12.149 16.0489 12.149C16.2147 12.149 16.3473 12.149 16.5131 12.149Z"
    fill="white" />
  <path
    d="M1.35951 6.7006C1.82373 6.80213 2.28796 6.90365 2.78534 6.86981C2.88482 6.86981 2.91798 6.90365 2.95113 6.97133C3.05061 7.30974 3.15009 7.64815 3.24956 7.98656C3.61431 9.30636 3.3822 10.7277 3.05061 12.0475C2.61955 13.5026 2.02269 14.8901 2.02269 16.413C2.02269 16.616 2.05585 16.8529 2.08901 17.0559C2.08901 17.1236 2.15532 17.1575 2.22164 17.1575C2.28796 17.1575 2.28796 17.1236 2.28796 17.0221C2.28796 16.7852 2.28796 16.5483 2.28796 16.3114C2.32112 16.0407 2.35428 15.77 2.38743 15.5331C2.68586 14.1795 3.3822 12.8935 3.91274 11.6075C4.37696 10.3893 4.87435 8.93411 4.57592 7.58047C4.5096 7.2759 4.41012 7.00517 4.3438 6.7006C4.3438 6.7006 4.3438 6.70061 4.3438 6.66676C4.47644 6.59908 4.60908 6.56524 4.77487 6.49756C4.97382 6.39604 5.17278 6.32835 5.37173 6.22683C6.0349 5.85458 6.7644 5.31313 7.29494 4.73783C7.39442 4.63631 7.39442 4.60247 7.56021 4.70399C8.42234 5.34697 8.88656 6.39604 8.91972 7.47895C8.95288 8.32497 8.78709 9.17099 8.55497 9.98318C8.42234 10.457 8.25655 10.9307 8.09075 11.4383C7.82548 12.2505 7.56021 13.0289 7.42757 13.8749C7.36126 14.3148 7.39442 14.7886 7.46073 15.2285C7.49389 15.4316 7.62653 16.4468 7.82548 16.5145C7.85864 16.5145 7.92496 16.5145 7.95812 16.5145C7.95812 16.5145 7.95812 16.4468 7.95812 16.413C7.79232 15.7361 7.65969 15.0255 7.726 14.3148C7.79232 13.4011 8.22339 12.5551 8.58813 11.7429C9.31763 10.0847 9.9808 8.46033 10.2129 6.63292C10.3455 5.44849 10.2129 4.2979 9.4171 3.38419C9.31763 3.24883 9.18499 3.18115 9.05236 3.04578C9.05236 3.04578 9.0192 3.01194 8.98604 2.9781C9.0192 2.94426 9.05236 2.87658 9.08552 2.84274C9.28447 2.63969 9.51658 2.43665 9.74869 2.2336C9.91449 2.09824 10.0803 1.96287 10.2461 1.82751C10.5113 1.62446 10.8098 1.42142 11.075 1.21837C11.1414 1.15069 11.2408 1.11685 11.3403 1.08301C11.3735 1.08301 11.4066 1.08301 11.4398 1.11685C12.2024 1.69214 12.6004 2.47049 12.6667 3.41803C12.6998 3.99333 12.6335 4.60247 12.534 5.17776C12.1361 7.51279 11.4398 9.71245 10.6108 11.8444C10.2461 12.8258 9.88133 13.8072 9.84817 14.8901C9.84817 16.1761 10.3124 17.3943 11.1082 18.4096C11.3735 18.7141 11.6387 19.0187 11.904 19.3233C11.7714 19.3233 11.6719 19.3233 11.5393 19.2894C11.3403 19.2556 11.1745 19.2556 10.9756 19.2218C10.014 19.1202 8.98604 19.0864 8.02443 19.1202C7.85864 19.1202 7.69285 19.1202 7.52705 19.1541C7.46073 19.1541 7.39442 19.1202 7.36126 19.0526C6.56545 17.8343 5.76963 16.4468 5.70332 14.924C5.60384 12.5212 7.22862 10.3216 6.73124 7.91888C6.73124 7.88504 6.73124 7.8512 6.73124 7.81736C6.73124 7.78352 6.73124 7.71583 6.66492 7.71583C6.5986 7.71583 6.53229 7.78352 6.53229 7.8512C6.53229 7.91888 6.53229 8.0204 6.49913 8.08808C6.39965 9.67861 5.67016 11.0661 5.00698 12.4874C4.24433 14.1118 3.81326 15.7361 4.14485 17.5635C4.24433 18.105 4.41012 18.5788 4.57592 19.0864C4.60908 19.1541 4.64223 19.2556 4.64223 19.3233C4.47644 19.3233 4.3438 19.3571 4.17801 19.3571C3.97906 19.391 3.7801 19.391 3.58115 19.391C2.91798 19.391 2.18848 19.4248 1.55846 19.2556C1.52531 19.2556 1.49215 19.2556 1.45899 19.2218C1.32635 19.1879 1.26003 19.1202 1.19372 19.0187C0.795812 18.0712 0.198953 17.1236 0.0663176 16.1084C0 15.973 0 15.77 0 15.5669C0.0663176 14.3487 0.762653 13.3673 1.19372 12.2505C1.72426 10.8969 1.79058 9.5094 1.59162 8.05424C1.55846 7.71583 1.49215 7.41126 1.42583 7.07286C1.39267 6.97133 1.39267 6.86981 1.35951 6.7006Z"
    fill="white" />
  <path
    d="M25.7644 18.9172C25.5654 18.9172 25.3665 18.9172 25.1675 18.9172C24.7696 18.9172 24.3386 18.9172 23.9407 18.9511C23.8743 18.9511 23.808 18.9511 23.7085 18.9511C23.6091 18.9511 23.5427 18.8834 23.5096 18.8157C23.178 18.342 22.9459 17.8343 22.7801 17.259C22.6806 16.8868 22.6475 16.5145 22.6143 16.1423C22.5148 14.3149 22.979 12.589 23.377 10.8631C23.7749 9.23874 24.1064 7.51285 23.808 5.88848C23.5096 4.3318 22.6806 2.87664 21.8185 1.62452C21.5532 1.25227 21.2879 0.880023 21.0227 0.541614C20.9895 0.507773 20.9564 0.473932 20.9564 0.40625C21.1553 0.541614 21.3211 0.643137 21.5201 0.7785C22.6143 1.55684 23.7085 2.2675 24.7696 3.11353C24.9023 3.21505 25.0349 3.38425 25.1344 3.55346C25.3665 3.85803 25.5986 4.12875 25.7975 4.43332C27.2897 6.49762 28.2513 8.83265 28.4171 11.4046C28.5166 13.4012 28.185 15.3978 28.3508 17.4282C28.3508 17.4959 28.3508 17.5298 28.3839 17.5975C28.3839 17.6313 28.4503 17.6651 28.4834 17.6651C28.5166 17.6651 28.5497 17.6313 28.5497 17.5975C28.616 17.259 28.6492 16.9206 28.7155 16.5822C28.9808 15.0594 29.4782 13.5704 29.644 12.0137C29.7766 10.6939 29.7434 9.10337 29.1134 7.91894C28.9476 7.61437 28.815 7.3098 28.6492 7.00523C28.3508 6.49762 28.0192 6.02385 27.6876 5.55007C27.5881 5.41471 27.4555 5.24551 27.356 5.0763C27.3892 5.11014 27.4223 5.11014 27.4555 5.14398C27.8202 5.38087 28.1518 5.6516 28.5166 5.88848C29.2461 6.36226 30.0087 6.80219 30.7382 7.27596C31.4677 7.71589 32.2635 8.12199 32.8604 8.76496C33.5235 9.44178 33.623 10.4909 33.7225 11.4046C33.8551 12.6228 33.822 13.8411 33.7225 15.0594C33.6893 15.77 33.5899 16.4807 33.5567 17.1575C33.5567 17.4282 33.5235 17.699 33.5235 17.9359C33.5235 18.1389 33.5567 18.342 33.5567 18.545C33.5899 18.7142 33.623 18.8834 33.7225 19.0526C33.7557 19.1203 33.822 19.1541 33.8551 19.188C33.8883 19.2218 33.8883 19.2218 33.9215 19.2557C33.8551 19.2557 33.822 19.2557 33.7557 19.2557C33.5236 19.2218 33.2914 19.188 33.0925 19.188C32.9267 19.1541 32.7941 19.1541 32.6283 19.1541C32.4293 19.1203 32.2304 19.1203 32.0646 19.0865C31.8324 19.0526 31.733 18.8834 31.6667 18.6804C31.4677 18.0712 31.6003 17.4621 31.6335 16.853C31.6998 16.1084 31.7661 15.3978 31.7993 14.6533C31.8656 13.1643 31.8988 11.6076 31.5672 10.1524C31.5009 9.81403 31.4014 9.50947 31.2688 9.2049C31.0366 8.69728 30.7382 8.25735 30.4066 7.85126C30.3735 7.81742 30.3403 7.78358 30.274 7.78358C30.274 7.78358 30.2408 7.78358 30.2077 7.78358C30.2077 7.81742 30.2077 7.81742 30.2077 7.85126C30.274 7.95278 30.3403 8.0543 30.4066 8.12199C31.3682 9.44178 31.3351 11.3707 31.1693 12.9274C31.0035 14.4841 30.6387 16.0746 30.3071 17.5975C30.2408 17.8682 30.2408 18.1727 30.2408 18.4773C30.2408 18.6465 30.274 18.8496 30.4066 18.9849C30.2408 18.9849 30.1082 18.9849 29.9756 18.9849C29.7766 18.9849 29.5777 18.9511 29.4119 18.9511C28.7818 18.9511 28.1187 18.9511 27.4886 18.9172C27.3892 18.9172 27.3229 18.8496 27.2565 18.7819C26.6265 18.2066 26.5934 17.1575 26.527 16.3453C26.4607 15.3639 26.527 14.4164 26.5934 13.435C26.7923 10.8969 26.9249 8.35887 25.7975 5.99001C25.6649 5.68544 25.4991 5.38087 25.3333 5.0763C25.3002 5.04246 25.267 4.97478 25.2007 4.94094C25.2007 4.94094 25.1675 4.94094 25.1344 4.94094C25.1344 4.97478 25.1344 4.97478 25.1344 5.00862C25.267 5.31319 25.4328 5.6516 25.5654 5.95617C26.2949 7.74974 26.2618 9.61099 25.897 11.5061C25.6981 12.589 25.3996 13.6381 25.2338 14.721C25.0349 15.9054 25.0349 17.2252 25.3996 18.3758C25.4991 18.545 25.6318 18.7142 25.7644 18.9172Z"
    fill="white" />
  <path
    d="M33.822 17.5296C33.8552 17.2588 33.8883 16.9543 33.9215 16.6159C34.0541 15.3976 34.2862 14.1793 34.3194 12.9272C34.3525 12.3181 34.3194 11.7089 34.2199 11.0998C34.1204 10.4907 33.8552 9.9492 33.6562 9.37391C33.623 9.30622 33.623 9.23854 33.623 9.17086C33.623 9.10318 33.6562 9.06934 33.7225 9.06934C33.8883 9.10318 34.0541 9.10318 34.1867 9.17086C35.4136 9.54311 36.74 10.423 37.4032 11.5736C37.6021 11.9458 37.7679 12.3519 37.8342 12.7918C38.1658 14.6869 37.8342 16.6159 37.8011 18.511C37.8011 18.6802 37.8342 18.8494 37.8342 19.0524C37.8342 19.2555 37.8342 19.4585 37.8011 19.6616C37.7679 19.8646 37.6021 20 37.3368 20C37.1379 20 36.9389 19.9661 36.74 19.9323C35.9442 19.7631 35.082 19.4585 34.4189 18.9509C34.1204 18.7478 33.9215 18.4771 33.8883 18.1049C33.8552 17.9357 33.8552 17.7665 33.822 17.5296ZM36.9058 13.4348C36.9058 12.3181 36.74 10.9306 35.6457 10.3215C35.5463 10.2538 35.4136 10.2199 35.3141 10.2199C35.2147 10.2199 35.1815 10.2538 35.1815 10.3553C35.1815 10.4568 35.2147 10.5583 35.2478 10.6599C35.8115 12.758 35.4136 14.7546 35.1815 16.8528C35.1484 17.1573 35.1152 17.4619 35.1152 17.7665C35.1152 17.9357 35.1484 18.1387 35.2147 18.3079C35.3805 18.6125 35.6126 18.7817 35.9442 18.8155C36.2758 18.8494 36.4747 18.714 36.5079 18.4094C36.6737 17.3265 36.7731 16.2098 36.8063 15.093C36.8395 14.5516 36.9058 13.9763 36.9058 13.4348Z"
    fill="white" />
</svg>