<svg width="1920" height="2364" viewBox="0 0 1920 2364" fill="none" xmlns="http://www.w3.org/2000/svg">
  <g clip-path="url(#clip0_541_57)">
    <path
      d="M2015.57 2310.07C1972.92 2312.19 1930.26 2314.3 1887.61 2316.42C1875.98 2317.12 1863.64 2317.47 1852.71 2313.24C1840.02 2308.31 1830.86 2297.38 1823.45 2286.1C1776.57 2217.36 1773.75 2127.12 1789.26 2045.34C1805.48 1959.68 1839.32 1878.61 1870.69 1797.53C1902.41 1716.46 1932.38 1633.27 1940.49 1546.55C1948.59 1459.83 1932.38 1367.83 1879.5 1298.39C1938.02 1290.28 1996.89 1283.94 2055.4 1279.35C2090.3 1276.53 2113.21 1283.23 2138.59 1307.2C2164.32 1331.52 2187.59 1358.31 2207.68 1387.57C2247.87 1446.09 2275.36 1513.06 2288.41 1582.86C2303.21 1663.58 2299.33 1746.42 2294.4 1828.2C2289.46 1909.98 2283.82 1992.47 2296.51 2073.54C2308.85 2154.62 2340.93 2235.34 2400.85 2291.39C2363.84 2294.21 2326.83 2297.38 2289.82 2300.2C2276.77 2301.26 2263.38 2302.32 2251.04 2298.09C2233.42 2292.45 2220.37 2277.64 2209.09 2262.84C2171.73 2213.49 2144.58 2156.38 2130.48 2096.1C2129.07 2089.76 2127.31 2083.06 2122.38 2078.83C2116.74 2073.9 2108.63 2073.54 2101.23 2073.9C2050.11 2074.25 1999.35 2074.95 1948.24 2075.31C1940.49 2158.5 1965.16 2244.15 2015.57 2310.07ZM2052.23 1931.84C2070.91 1931.48 2089.59 1931.48 2108.28 1931.48C2112.15 1931.48 2114.62 1930.43 2114.97 1925.84C2115.68 1915.97 2116.03 1906.1 2117.09 1896.59C2118.5 1881.78 2120.26 1866.98 2121.67 1852.17C2132.95 1740.78 2152.69 1613.53 2122.02 1502.84C2115.33 1478.52 2107.57 1454.55 2097 1431.63C2094.53 1425.99 2091.71 1420.71 2088.89 1415.42C2087.13 1412.25 2081.84 1410.48 2078.31 1412.25C2074.44 1414.01 2077.26 1417.18 2077.61 1419.65C2080.43 1435.16 2083.95 1450.32 2086.42 1465.83C2095.94 1523.64 2085.01 1584.62 2074.08 1641.73C2059.63 1716.81 2033.19 1788.01 2009.93 1860.28C2008.52 1864.86 2007.11 1869.44 2005.7 1874.03C2000.06 1891.65 1994.07 1909.28 1988.78 1926.9C1986.66 1933.25 1987.72 1934.3 1994.42 1934.3C2005.35 1933.95 2016.63 1933.25 2027.55 1932.89C2035.66 1932.19 2044.12 1931.84 2052.23 1931.84Z"
      fill="#6AC273" fill-opacity="0.2" />
    <path
      d="M1221.38 1639.96C1246.76 1645.6 1272.49 1650.19 1298.58 1649.13C1303.51 1648.78 1305.63 1650.54 1307.04 1655.12C1312.32 1673.45 1318.32 1691.43 1323.25 1709.76C1342.64 1781.32 1331.36 1857.11 1311.97 1927.25C1290.82 2004.1 1258.74 2079.89 1258.74 2160.61C1258.74 2172.24 1260.51 2183.88 1261.56 2195.51C1261.92 2199.39 1264.74 2200.8 1268.26 2200.09C1271.79 2199.39 1272.49 2197.27 1272.49 2193.75C1272.14 2181.06 1271.79 2168.37 1272.84 2155.68C1273.9 2141.58 1275.66 2127.12 1278.84 2113.38C1295.76 2040.05 1334.18 1972.37 1362.03 1902.58C1388.46 1837.01 1413.85 1758.05 1397.63 1686.85C1394.1 1670.98 1388.82 1655.47 1384.59 1639.61C1384.59 1639.26 1384.59 1638.55 1384.23 1638.55C1391.99 1635.38 1399.39 1632.56 1407.15 1629.04C1418.08 1624.45 1429 1619.87 1439.23 1614.23C1476.24 1594.49 1515.72 1564.88 1544.27 1534.21C1550.26 1527.87 1549.56 1527.16 1558.02 1533.15C1605.96 1568.05 1630.28 1624.81 1632.4 1682.97C1633.81 1728.09 1624.64 1774.27 1611.95 1817.27C1604.2 1843.36 1595.38 1868.74 1586.92 1894.47C1572.82 1937.12 1557.67 1980.13 1551.32 2024.9C1547.8 2049.57 1548.85 2074.25 1553.44 2098.57C1555.2 2109.15 1562.95 2164.49 1573.88 2168.01C1576 2168.72 1578.82 2168.37 1580.93 2167.66C1581.64 2167.31 1581.64 2164.14 1581.28 2162.02C1572.47 2125.36 1565.77 2087.29 1569.3 2048.51C1573.53 1999.87 1596.44 1954.75 1616.18 1910.69C1655.66 1821.15 1693.03 1734.43 1704.66 1636.09C1712.06 1572.28 1705.01 1511.65 1660.95 1461.95C1655.31 1455.6 1648.26 1450.32 1641.91 1444.32C1640.86 1443.62 1640.15 1442.56 1638.74 1441.5C1640.86 1439.04 1642.62 1436.92 1644.73 1434.81C1656.37 1423.53 1668 1412.25 1680.34 1401.67C1689.15 1393.92 1698.32 1386.51 1707.83 1379.82C1722.99 1368.89 1738.5 1358.31 1754.01 1347.74C1758.59 1344.92 1763.88 1343.16 1768.82 1341.04C1770.23 1340.69 1772.34 1341.39 1773.4 1342.1C1815.35 1373.12 1837.2 1414.36 1840.73 1466.53C1842.84 1497.9 1838.61 1529.28 1833.68 1560.3C1813.23 1682.97 1775.51 1800.35 1729.34 1915.27C1709.24 1968.14 1688.45 2021.02 1688.45 2078.13C1688.45 2146.86 1713.83 2213.49 1756.83 2266.71C1770.58 2283.63 1785.74 2299.5 1800.89 2316.42C1793.84 2316.06 1787.5 2315.71 1780.8 2315.01C1770.58 2313.95 1760.71 2312.89 1750.49 2311.83C1697.61 2306.55 1642.27 2304.43 1587.98 2305.84C1578.82 2306.19 1570 2306.19 1560.84 2306.9C1556.61 2307.25 1553.79 2305.84 1551.32 2302.32C1506.91 2237.81 1463.2 2161.67 1460.38 2081.3C1455.44 1952.28 1543.21 1834.55 1516.07 1704.82C1515.72 1703.41 1515.72 1701.65 1515.37 1700.24C1514.66 1697.77 1515.01 1694.25 1510.78 1694.25C1507.61 1694.25 1503.03 1698.13 1502.68 1700.95C1502.32 1705.53 1501.97 1710.11 1501.62 1714.34C1495.98 1800.35 1455.09 1874.73 1419.49 1950.52C1378.24 2038.64 1354.27 2126.07 1371.9 2223.36C1377.18 2251.91 1385.64 2278.7 1395.87 2305.49C1397.63 2309.72 1398.69 2314.3 1400.45 2319.24C1391.64 2319.94 1383.53 2321 1375.07 2321.7C1363.79 2322.76 1352.86 2324.17 1341.58 2324.17C1305.27 2324.52 1265.79 2326.64 1230.54 2317.47C1228.43 2317.12 1226.67 2316.42 1224.55 2316.42C1217.85 2315.36 1213.62 2311.83 1210.8 2305.49C1188.6 2255.43 1155.81 2204.32 1148.41 2149.33C1147 2138.76 1147.35 2127.48 1148.06 2116.9C1151.94 2050.63 1189.3 1998.11 1213.62 1938.53C1243.23 1866.27 1245.7 1790.48 1235.13 1713.99C1232.66 1696.72 1228.78 1679.44 1225.61 1662.17C1223.85 1654.42 1222.79 1647.72 1221.38 1639.96Z"
      fill="#6AC273" fill-opacity="0.2" />
  </g>
  <g clip-path="url(#clip1_541_57)">
    <path
      d="M842.239 1188.56C793.071 1191 743.903 1193.44 694.735 1195.88C681.325 1196.69 667.103 1197.1 654.506 1192.22C639.878 1186.53 629.313 1173.94 620.78 1160.93C566.735 1081.7 563.485 977.67 581.364 883.398C600.056 784.655 639.065 691.196 675.23 597.736C711.801 504.276 746.341 408.378 755.687 308.417C765.033 208.456 746.341 102.399 685.389 22.3489C752.842 13.0029 820.702 5.68864 888.156 0.406129C928.384 -2.84465 954.797 4.87594 984.054 32.5075C1013.72 60.5455 1040.54 91.4278 1063.7 125.155C1110.02 192.608 1141.72 269.814 1156.75 350.271C1173.82 443.324 1169.35 538.816 1163.66 633.088C1157.97 727.361 1151.47 822.446 1166.1 915.906C1180.32 1009.37 1217.3 1102.42 1286.38 1167.03C1243.71 1170.28 1201.04 1173.94 1158.38 1177.19C1143.34 1178.41 1127.9 1179.62 1113.68 1174.75C1093.36 1168.25 1078.33 1151.18 1065.32 1134.11C1022.25 1077.23 990.962 1011.4 974.708 941.912C973.082 934.598 971.051 926.877 965.362 922.001C958.86 916.312 949.514 915.906 940.981 916.312C882.061 916.718 823.547 917.531 764.626 917.937C755.687 1013.84 784.131 1112.58 842.239 1188.56ZM884.499 752.554C906.035 752.148 927.572 752.148 949.108 752.148C953.578 752.148 956.422 750.929 956.828 745.646C957.641 734.269 958.048 722.891 959.267 711.919C960.892 694.853 962.924 677.786 964.549 660.72C977.552 532.314 1000.31 385.623 964.955 258.03C957.235 229.992 948.295 202.361 936.105 175.948C933.26 169.446 930.01 163.351 926.759 157.256C924.727 153.599 918.632 151.567 914.568 153.599C910.099 155.631 913.349 159.288 913.756 162.132C917.006 180.011 921.07 197.484 923.914 215.364C934.886 282.004 922.289 352.303 909.692 418.131C893.032 504.683 862.556 586.765 835.737 670.066C834.112 675.348 832.486 680.631 830.861 685.913C824.359 706.231 817.452 726.548 811.356 746.865C808.918 754.18 810.137 755.399 817.858 755.399C830.455 754.992 843.458 754.18 856.054 753.773C865.4 752.96 875.153 752.554 884.499 752.554Z"
      fill="#6AC273" fill-opacity="0.2" />
    <path
      d="M-73.2608 416.099C-44.0038 422.601 -14.3405 427.883 15.7291 426.664C21.418 426.258 23.8561 428.29 25.4815 433.572C31.5767 454.702 38.4846 475.426 44.1734 496.556C66.5225 579.044 53.5194 666.409 31.1703 747.272C6.78951 835.856 -30.188 923.22 -30.188 1016.27C-30.188 1029.68 -28.1563 1043.09 -26.9373 1056.5C-26.5309 1060.97 -23.2801 1062.6 -19.2167 1061.78C-15.1532 1060.97 -14.3405 1058.53 -14.3405 1054.47C-14.7469 1039.84 -15.1532 1025.21 -13.9342 1010.58C-12.7151 994.331 -10.6834 977.671 -7.02627 961.823C12.4784 877.303 56.7702 799.284 88.8716 718.828C119.348 643.247 148.605 552.226 129.913 470.144C125.849 451.858 119.754 433.979 114.878 415.693C114.878 415.287 114.878 414.474 114.471 414.474C123.411 410.817 131.944 407.566 140.884 403.503C153.481 398.22 166.077 392.938 177.862 386.436C220.528 363.681 266.039 329.548 298.953 294.195C305.861 286.881 305.048 286.068 314.8 292.976C370.064 333.205 398.102 398.626 400.54 465.674C402.165 517.686 391.6 570.918 376.971 620.492C368.032 650.562 357.873 679.819 348.121 709.482C331.867 758.65 314.394 808.224 307.08 859.83C303.016 888.274 304.235 916.719 309.518 944.757C311.55 956.947 320.489 1020.74 333.086 1024.81C335.524 1025.62 338.775 1025.21 341.213 1024.4C342.026 1023.99 342.026 1020.34 341.619 1017.9C331.461 975.639 323.74 931.754 327.804 887.055C332.68 830.98 359.092 778.967 381.848 728.174C427.359 624.962 470.431 525 483.841 411.63C492.374 338.081 484.247 268.189 433.454 210.894C426.952 203.58 418.825 197.485 411.511 190.577C410.292 189.764 409.479 188.545 407.854 187.326C410.292 184.482 412.324 182.044 414.762 179.606C428.171 166.602 441.581 153.599 455.803 141.409C465.961 132.469 476.526 123.936 487.498 116.215C504.971 103.619 522.85 91.4283 540.729 79.2379C546.012 75.9871 552.107 73.9553 557.796 71.5173C559.421 71.1109 561.859 71.9236 563.078 72.7363C611.434 108.495 636.627 156.037 640.691 216.177C643.129 252.342 638.253 288.506 632.564 324.265C608.996 465.674 565.516 600.987 512.285 733.456C489.123 794.408 465.149 855.36 465.149 921.189C465.149 1000.43 494.406 1077.23 543.98 1138.58C559.828 1158.09 577.3 1176.37 594.773 1195.88C586.646 1195.47 579.332 1195.07 571.612 1194.25C559.828 1193.03 548.45 1191.82 536.666 1190.6C475.714 1184.5 411.917 1182.06 349.34 1183.69C338.775 1184.09 328.616 1184.09 318.051 1184.91C313.175 1185.31 309.924 1183.69 307.08 1179.63C255.88 1105.26 205.493 1017.49 202.242 924.846C196.553 776.123 297.734 640.403 266.445 490.867C266.039 489.242 266.039 487.21 265.632 485.585C264.82 482.74 265.226 478.677 260.35 478.677C256.693 478.677 251.41 483.147 251.004 486.397C250.598 491.68 250.191 496.962 249.785 501.839C243.283 600.987 196.147 686.726 155.106 774.091C107.564 875.678 79.9319 976.452 100.249 1088.6C106.344 1121.52 116.097 1152.4 127.881 1183.28C129.913 1188.16 131.132 1193.44 133.163 1199.13C123.005 1199.94 113.659 1201.16 103.906 1201.97C90.9033 1203.19 78.3066 1204.82 65.3035 1204.82C23.4497 1205.22 -22.0611 1207.66 -62.6958 1197.1C-65.1339 1196.69 -67.1656 1195.88 -69.6037 1195.88C-77.3243 1194.66 -82.2004 1190.6 -85.4512 1183.28C-111.051 1125.58 -148.841 1066.66 -157.375 1003.27C-159 991.08 -158.594 978.077 -157.781 965.887C-153.311 889.493 -110.238 828.948 -82.2004 760.275C-48.0673 676.974 -45.2229 589.609 -57.4133 501.432C-60.2577 481.521 -64.7275 461.61 -68.3847 441.699C-70.4164 432.76 -71.6354 425.039 -73.2608 416.099Z"
      fill="#6AC273" fill-opacity="0.2" />
    <path
      d="M1469.64 1172.31C1457.04 1172.31 1444.44 1172.31 1431.85 1172.31C1406.25 1172.72 1380.24 1173.12 1354.64 1173.53C1350.17 1173.53 1345.3 1173.53 1340.83 1173.94C1334.32 1174.34 1331.07 1170.28 1327.82 1165.81C1305.88 1136.55 1291.66 1104.04 1282.31 1069.1C1276.22 1046.34 1273.37 1023.59 1272.15 1000.83C1266.06 888.274 1294.1 781.405 1320.92 672.91C1346.11 571.73 1367.24 466.486 1347.33 364.087C1329.04 268.595 1277.03 178.386 1221.36 99.9613C1205.11 77.2059 1188.45 54.8568 1171.79 32.1014C1170.16 29.6633 1168.54 27.6315 1167.32 24.7871C1179.1 32.5077 1190.88 40.2283 1202.67 47.9489C1271.34 95.4915 1341.64 141.002 1407.47 192.202C1416.81 199.516 1423.72 209.675 1431.04 219.021C1445.26 237.307 1459.48 255.592 1473.3 274.284C1566.76 402.69 1629.33 545.724 1638.68 705.824C1645.99 830.167 1623.64 954.102 1633.4 1078.04C1633.8 1081.29 1633.8 1084.95 1635.43 1087.79C1636.24 1089.82 1639.49 1091.04 1641.93 1091.45C1643.15 1091.45 1645.18 1088.6 1645.59 1086.57C1649.24 1065.44 1652.49 1044.31 1656.56 1023.59C1674.44 928.909 1705.32 837.481 1714.26 740.77C1721.98 659.501 1719.95 559.946 1679.72 486.397C1669.56 468.112 1660.62 449.013 1650.46 430.728C1632.58 399.033 1611.45 369.369 1589.1 340.519C1581.79 331.173 1574.88 321.827 1567.97 312.074C1570.41 313.293 1572.44 314.919 1574.48 316.138C1596.42 331.985 1618.36 348.239 1641.12 362.868C1687.44 392.937 1734.98 420.163 1782.53 448.607C1828.44 475.832 1878.42 501.838 1916.62 539.629C1958.88 581.889 1964.98 646.091 1971.48 702.167C1980.01 777.342 1977.57 852.516 1972.29 927.69C1969.44 971.575 1963.76 1015.05 1961.32 1058.53C1960.51 1074.79 1958.88 1091.04 1958.88 1107.3C1958.88 1120.3 1960.91 1132.9 1962.13 1145.9C1963.35 1156.87 1966.6 1167.43 1972.7 1176.37C1975.13 1179.62 1977.98 1182.47 1980.82 1185.31C1982.04 1186.53 1983.67 1187.75 1984.89 1190.19C1981.23 1190.19 1977.98 1190.6 1974.32 1190.19C1960.1 1188.56 1945.88 1186.94 1931.65 1185.31C1921.9 1184.09 1912.15 1183.28 1902.4 1182.47C1890.21 1181.25 1878.02 1181.25 1865.83 1179.22C1852.01 1176.78 1844.29 1166.22 1840.23 1153.62C1827.63 1116.64 1834.94 1079.26 1839.01 1041.47C1843.48 996.362 1847.54 951.258 1849.98 905.747C1854.86 813.913 1856.48 716.39 1834.54 626.181C1829.66 605.863 1823.57 585.952 1815.03 567.26C1800.81 536.378 1781.31 509.153 1760.18 483.146C1758.55 481.115 1755.3 479.489 1752.86 478.27C1752.05 477.864 1750.42 478.677 1749.61 478.677C1750.02 479.896 1749.61 481.115 1750.42 481.927C1754.49 488.023 1758.55 493.711 1762.61 499.807C1823.16 581.889 1821.13 700.542 1810.97 797.253C1800.81 893.963 1778.46 991.486 1755.71 1086.17C1751.64 1103.64 1750.42 1122.33 1750.83 1140.21C1751.24 1151.59 1752.46 1162.56 1761.4 1172.31C1751.64 1172.31 1742.7 1172.72 1733.76 1172.31C1721.57 1171.9 1709.38 1169.87 1697.19 1169.87C1656.56 1169.06 1616.33 1169.06 1575.69 1168.65C1568.79 1168.65 1564.32 1164.18 1560.25 1160.12C1520.84 1124.36 1517.59 1058.94 1514.34 1009.77C1510.27 950.039 1513.93 889.9 1518.4 830.167C1530.18 672.91 1539.12 515.654 1468.83 369.369C1459.48 349.865 1449.73 330.766 1439.57 311.668C1437.94 308.417 1434.69 306.386 1431.85 303.947C1431.04 303.541 1429.41 303.947 1428.19 303.947C1428.19 305.166 1428.19 306.386 1428.6 307.198C1437.94 326.703 1448.1 346.208 1456.23 366.118C1501.74 477.864 1500.52 593.266 1478.17 710.294C1465.57 776.935 1447.7 842.357 1436.72 909.404C1424.94 982.547 1424.13 1063.82 1447.7 1134.93C1452.17 1148.34 1460.7 1159.71 1469.64 1170.28C1470.04 1171.09 1470.04 1171.9 1469.64 1172.31Z"
      fill="#6AC273" fill-opacity="0.2" />
  </g>
  <g clip-path="url(#clip2_541_57)">
    <path
      d="M-173.432 2320.07C-216.085 2322.19 -258.738 2324.3 -301.391 2326.42C-313.023 2327.12 -325.361 2327.47 -336.288 2323.24C-348.978 2318.31 -358.144 2307.38 -365.546 2296.1C-412.429 2227.36 -415.249 2137.12 -399.739 2055.34C-383.524 1969.68 -349.683 1888.61 -318.311 1807.53C-286.585 1726.46 -256.623 1643.27 -248.515 1556.55C-240.407 1469.83 -256.623 1377.83 -309.498 1308.39C-250.983 1300.28 -192.114 1293.94 -133.599 1289.35C-98.701 1286.53 -75.7884 1293.23 -50.4082 1317.2C-24.6754 1341.52 -1.41019 1368.31 18.6825 1397.57C58.8679 1456.09 86.3632 1523.06 99.4058 1592.86C114.211 1673.58 110.333 1756.42 105.398 1838.2C100.463 1919.98 94.8233 2002.47 107.513 2083.54C119.851 2164.62 151.929 2245.34 211.854 2301.39C174.842 2304.21 137.829 2307.38 100.816 2310.2C87.7733 2311.26 74.3781 2312.32 62.0405 2308.09C44.4153 2302.45 31.3726 2287.64 20.0925 2272.84C-17.2729 2223.49 -44.4156 2166.38 -58.5157 2106.1C-59.9257 2099.76 -61.6882 2093.06 -66.6232 2088.83C-72.2633 2083.9 -80.3709 2083.54 -87.7734 2083.9C-138.886 2084.25 -189.647 2084.95 -240.76 2085.31C-248.515 2168.5 -223.84 2254.15 -173.432 2320.07ZM-136.772 1941.84C-118.089 1941.48 -99.4061 1941.48 -80.7234 1941.48C-76.8459 1941.48 -74.3783 1940.43 -74.0258 1935.84C-73.3208 1925.97 -72.9683 1916.1 -71.9108 1906.59C-70.5008 1891.78 -68.7383 1876.98 -67.3283 1862.17C-56.0482 1750.78 -36.308 1623.53 -66.9758 1512.84C-73.6733 1488.52 -81.4284 1464.55 -92.0035 1441.63C-94.471 1435.99 -97.291 1430.71 -100.111 1425.42C-101.874 1422.25 -107.161 1420.48 -110.686 1422.25C-114.564 1424.01 -111.744 1427.18 -111.391 1429.65C-108.571 1445.16 -105.046 1460.32 -102.579 1475.83C-93.061 1533.64 -103.989 1594.62 -114.916 1651.73C-129.369 1726.81 -155.807 1798.01 -179.072 1870.28C-180.482 1874.86 -181.892 1879.44 -183.302 1884.03C-188.942 1901.65 -194.934 1919.28 -200.222 1936.9C-202.337 1943.25 -201.28 1944.3 -194.582 1944.3C-183.654 1943.95 -172.374 1943.25 -161.447 1942.89C-153.339 1942.19 -144.879 1941.84 -136.772 1941.84Z"
      fill="#6AC273" fill-opacity="0.2" />
    <path
      d="M370.834 2305.97C359.906 2305.97 348.978 2305.97 338.051 2305.97C315.843 2306.32 293.283 2306.68 271.075 2307.03C267.198 2307.03 262.968 2307.03 259.09 2307.38C253.45 2307.73 250.63 2304.21 247.81 2300.33C228.775 2274.95 216.437 2246.75 208.33 2216.44C203.042 2196.7 200.574 2176.96 199.517 2157.22C194.229 2059.57 218.552 1966.86 241.817 1872.75C263.673 1784.97 282.003 1693.67 264.73 1604.84C248.867 1522 203.747 1443.75 155.454 1375.72C141.354 1355.98 126.901 1336.59 112.449 1316.85C111.039 1314.73 109.629 1312.97 108.571 1310.5C118.794 1317.2 129.016 1323.9 139.239 1330.6C198.812 1371.84 259.795 1411.32 316.901 1455.73C325.008 1462.08 331.001 1470.89 337.346 1479C349.683 1494.86 362.021 1510.72 374.006 1526.94C455.082 1638.33 509.367 1762.41 517.475 1901.3C523.82 2009.16 504.432 2116.68 512.892 2224.19C513.245 2227.01 513.245 2230.18 514.655 2232.65C515.36 2234.41 518.18 2235.47 520.295 2235.82C521.353 2235.82 523.115 2233.36 523.468 2231.59C526.64 2213.26 529.46 2194.93 532.985 2176.96C548.495 2094.82 575.286 2015.51 583.041 1931.61C589.738 1861.11 587.976 1774.75 553.078 1710.95C544.265 1695.08 536.51 1678.52 527.698 1662.65C512.187 1635.16 493.857 1609.43 474.47 1584.4C468.125 1576.29 462.132 1568.18 456.139 1559.72C458.254 1560.78 460.017 1562.19 461.779 1563.25C480.815 1577 499.85 1591.1 519.59 1603.79C559.775 1629.87 601.018 1653.49 642.261 1678.16C682.094 1701.78 725.452 1724.34 758.587 1757.12C795.248 1793.78 800.535 1849.48 806.175 1898.13C813.578 1963.34 811.463 2028.55 806.88 2093.77C804.413 2131.84 799.478 2169.55 797.363 2207.27C796.658 2221.37 795.248 2235.47 795.248 2249.57C795.248 2260.85 797.01 2271.78 798.068 2283.06C799.125 2292.58 801.945 2301.74 807.233 2309.5C809.348 2312.32 811.815 2314.78 814.283 2317.25C815.34 2318.31 816.75 2319.37 817.808 2321.48C814.635 2321.48 811.815 2321.83 808.643 2321.48C796.305 2320.07 783.968 2318.66 771.63 2317.25C763.17 2316.19 754.71 2315.49 746.25 2314.78C735.675 2313.73 725.099 2313.73 714.524 2311.96C702.539 2309.85 695.842 2300.68 692.317 2289.76C681.389 2257.68 687.734 2225.25 691.259 2192.47C695.137 2153.34 698.662 2114.21 700.777 2074.73C705.007 1995.06 706.417 1910.46 687.382 1832.21C683.152 1814.58 677.864 1797.31 670.461 1781.09C658.124 1754.3 641.204 1730.69 622.873 1708.13C621.463 1706.36 618.643 1704.95 616.528 1703.9C615.823 1703.54 614.413 1704.25 613.708 1704.25C614.061 1705.31 613.708 1706.36 614.413 1707.07C617.938 1712.36 621.464 1717.29 624.989 1722.58C677.512 1793.78 675.749 1896.72 666.936 1980.61C658.124 2064.51 638.736 2149.11 618.996 2231.24C615.471 2246.4 614.413 2262.61 614.766 2278.12C615.118 2287.99 616.176 2297.51 623.931 2305.97C615.471 2305.97 607.716 2306.32 599.961 2305.97C589.386 2305.62 578.811 2303.86 568.235 2303.86C532.985 2303.15 498.087 2303.15 462.837 2302.8C456.844 2302.8 452.967 2298.92 449.442 2295.4C415.249 2264.38 412.429 2207.62 409.609 2164.97C406.084 2113.15 409.256 2060.98 413.134 2009.16C423.357 1872.75 431.112 1736.33 370.129 1609.43C362.021 1592.51 353.561 1575.94 344.748 1559.37C343.338 1556.55 340.518 1554.79 338.051 1552.67C337.346 1552.32 335.936 1552.67 334.878 1552.67C334.878 1553.73 334.878 1554.79 335.231 1555.49C343.338 1572.41 352.151 1589.33 359.201 1606.61C398.681 1703.54 397.624 1803.65 378.236 1905.18C367.309 1962.99 351.798 2019.74 342.281 2077.9C332.058 2141.35 331.353 2211.85 351.798 2273.54C355.676 2285.17 363.078 2295.04 370.834 2304.21C371.186 2304.91 371.186 2305.62 370.834 2305.97Z"
      fill="#6AC273" fill-opacity="0.2" />
    <path
      d="M813.93 2231.24C815.34 2217.49 817.103 2199.87 819.218 2182.24C826.973 2116.33 839.311 2051.11 841.778 1984.49C843.188 1951.35 842.13 1918.22 837.195 1885.44C832.26 1853.01 817.455 1823.75 805.823 1793.43C804.413 1790.26 803.708 1786.38 803.355 1783.21C803.003 1779.33 805.47 1777.57 808.995 1777.92C817.455 1779.33 826.268 1780.04 834.728 1782.5C902.056 1802.6 974.319 1849.83 1010.27 1911.52C1021.91 1931.61 1029.66 1953.47 1033.89 1976.73C1052.22 2077.9 1034.24 2182.6 1032.83 2284.47C1032.83 2293.99 1034.6 2303.5 1034.24 2313.02C1034.24 2323.6 1033.54 2334.53 1032.13 2345.1C1030.37 2356.73 1020.5 2363.43 1006.04 2363.08C995.117 2362.73 984.189 2360.96 973.262 2358.85C929.551 2350.39 881.963 2332.76 845.656 2306.32C830.145 2295.04 818.513 2279.89 815.693 2260.15C814.635 2252.04 814.635 2243.58 813.93 2231.24ZM981.722 2010.57C982.074 1950.65 971.852 1875.21 912.279 1843.49C906.639 1840.67 899.941 1838.91 893.949 1837.85C889.014 1837.14 886.193 1839.96 886.546 1844.9C886.898 1850.54 887.956 1856.53 889.366 1861.82C921.091 1974.97 898.179 2082.13 886.193 2195.29C884.431 2211.5 883.021 2228.07 882.668 2244.64C882.316 2254.51 884.431 2264.38 889.013 2273.19C897.473 2289.4 910.516 2298.22 928.494 2301.04C945.767 2303.5 957.399 2296.45 959.867 2278.83C968.679 2219.96 973.967 2160.74 977.139 2101.52C978.549 2071.56 981.369 2040.89 981.722 2010.57Z"
      fill="#6AC273" fill-opacity="0.2" />
  </g>
  <defs>
    <clipPath id="clip0_541_57">
      <rect width="2084" height="1074.43" fill="white" transform="translate(1147 1279)" />
    </clipPath>
    <clipPath id="clip1_541_57">
      <rect width="2402.32" height="1238.55" fill="white" transform="translate(-159)" />
    </clipPath>
    <clipPath id="clip2_541_57">
      <rect width="2084" height="1074.43" fill="white" transform="translate(-1042 1289)" />
    </clipPath>
  </defs>
</svg>